<?xml version="1.0" encoding="UTF-8"?>
<svg id="Layer_2" data-name="Layer 2" xmlns="http://www.w3.org/2000/svg" viewBox="0 0 428.21 428.23"  fill="currentColor">
  <path d="m214.1.02C96.05.02,0,96.07,0,214.12s96.05,214.1,214.1,214.1,214.1-96.05,214.1-214.1S332.16.02,214.1.02Zm-51.69,120.25c13.04-13.82,31.39-21.43,51.69-21.43s38.49,7.66,51.58,21.55c13.27,14.08,19.72,33,18.2,53.34-3.05,40.39-34.34,73.33-69.78,73.33s-66.79-32.94-69.78-73.34c-1.51-20.5,4.93-39.49,18.09-53.45Zm51.69,275.02c-48.86.03-95.65-19.73-129.7-54.78,9.65-13.76,21.95-25.46,36.17-34.42,26.24-16.82,59.44-26.08,93.53-26.08s67.29,9.26,93.5,26.08c14.24,8.95,26.54,20.65,36.2,34.42-34.04,35.05-80.83,54.82-129.7,54.78Z" style="stroke-width: 0px;"/>
</svg>