<?xml version="1.0" encoding="UTF-8"?>
<svg id="Layer_1" data-name="Layer 1" xmlns="http://www.w3.org/2000/svg" fill="currentColor" viewBox="0 0 428.21 428.23">
    <path class="cls-1" d="m203.06.25c29.52-1.41,59.36,3.08,86.98,13.64,51.28,19.22,94.35,59.12,117.61,108.66,21.6,45.27,26.39,98.24,13.38,146.67-8.87,33.75-26.29,65.2-50.13,90.68-23.84,25.7-54.05,45.54-87.28,56.76-46.56,16.08-98.7,15.39-144.78-2.05-51.28-19.02-94.47-58.68-117.93-108.07C6.45,276.49-.71,242.99.06,209.66c.66-37.68,11.62-75.13,31.34-107.24,18.54-30.26,44.7-55.82,75.41-73.61C136.03,11.83,169.33,2.05,203.06.25m-40.02,117.07c-9.14,2.95-14.63,12.92-13.94,22.21.02,51.35,0,102.69,0,154.04.07,10.09,9.72,18.4,19.55,18.4,4.19.02,8.39-1.13,11.89-3.47,42.88-26.41,85.77-52.8,128.68-79.16,2.22-1.4,4.49-2.83,6.18-4.88,7.31-8.07,5.51-22.14-3.62-28.07-44.36-25.98-88.83-51.78-133.2-77.74-4.69-2.58-10.5-3.11-15.55-1.33Z"/>
</svg>